<?xml version="1.0" encoding="utf-8"?>
<!-- Svg Vector Icons : http://www.sfont.cn -->
<!DOCTYPE svg PUBLIC "-//W3C//DTD SVG 1.1//EN" "http://www.w3.org/Graphics/SVG/1.1/DTD/svg11.dtd">
<svg version="1.1" xmlns="http://www.w3.org/2000/svg" xmlns:xlink="http://www.w3.org/1999/xlink" x="0px" y="0px" viewBox="0 0 1000 1000" enable-background="new 0 0 1000 1000" xml:space="preserve">
<metadata> Svg Vector Icons : http://www.sfont.cn </metadata>
<g><path d="M201.7,861.8C96,861.8,10,776.2,10,671c0-39.5,12-77.4,34.7-109.5c20.1-28.5,47.2-50.7,78.8-64.7l23.4,33.3C89,552.2,50,607.5,50,671c0,83.3,68,151.1,151.7,151.1c44.2,0,85.6-19,114.2-51.6l23.4,33.4C303.3,840.8,253.8,861.8,201.7,861.8z M741.1,861.8c-137.3,0-248.9-111.2-248.9-247.8c0-49.2,14.8-97.3,42.1-137.9l21.2,42.3c-15.3,29.4-23.3,62.3-23.3,95.6c0,114.7,93.7,208.1,208.9,208.1C856.3,822.1,950,728.7,950,614c0-108-82.6-197.5-189.6-207.2L740,366.2c0.3,0,0.7,0,1,0C878.3,366.2,990,477.3,990,614C990,750.6,878.3,861.8,741.1,861.8z M355.3,679.4c-5.2,0-9.9-3.1-12.7-8.2L156.4,336.5h-58c-10.9,0-19.7-8.7-19.7-19.3c0-10.7,8.8-19.3,19.7-19.3h138c10.9,0,19.7,8.7,19.7,19.3c0,10.7-8.8,19.3-19.7,19.3h-44.2l87.9,157.9l13-8.9c0.4-0.2,0.7-0.5,1.1-0.7l0.9-0.5l231.6-184.7c0.4-0.2,0.7-0.5,1.1-0.7c1.2-0.7,1.6-1,2.6-1.5l13.7-6.8l-66.6-114.9l-9.2,0.9c-1.1,0.1-2.5,0.2-3,0.2h-138c-10.9,0-19.7-8.7-19.7-19.3c0-10.7,8.8-19.3,19.7-19.3H477c17.2,0,18.2,1.7,22,8.2l281.4,485.3c4.5,7.9,1.8,18-6.2,22.6c-2.6,1.5-5.5,2.3-8.4,2.3c-6,0-11.3-3.1-14.3-8.2L560.4,318.9l-13.1,11.6c-1,0.8-2,1.6-3.1,2.3l-0.9,0.5L312,517.8c-0.3,0.2-0.6,0.3-0.9,0.4l-14.2,6.4L368.3,653c4.5,8.6,1.9,19.5-5.9,24.3C360.2,678.7,357.8,679.4,355.3,679.4z"/></g>
</svg>